<svg width="50" height="46" viewBox="0 0 50 46" fill="none" xmlns="http://www.w3.org/2000/svg">
<path d="M12.1122 15.5155L15.6994 31.1511H42.5239L46.1111 15.5155H21.6178H12.1122Z" fill="#F8DA7F"/>
<path d="M42.4883 7.28444H32.2383V10.5155H42.4883V7.28444Z" fill="#F8DA7F"/>
<path d="M44.7461 33.9289H13.4772C13.2178 33.9289 12.9928 33.7495 12.9356 33.4967L8.07833 12.1633C7.58667 10.0028 5.69556 8.49446 3.48 8.49446H0.555556C0.248889 8.49446 0 8.24557 0 7.9389C0 7.63224 0.248889 7.38335 0.555556 7.38335H3.48C6.21722 7.38335 8.55389 9.24724 9.16167 11.9167L13.92 32.8183H44.3022L48.7478 13.2939H21.6178C21.3111 13.2939 21.0622 13.045 21.0622 12.7383C21.0622 12.4317 21.3111 12.1828 21.6178 12.1828H49.4444C49.6139 12.1828 49.7733 12.26 49.8783 12.3917C49.9839 12.5239 50.0239 12.6967 49.9856 12.8617L45.2872 33.4967C45.23 33.7495 45.0056 33.9289 44.7461 33.9289Z" fill="black"/>
<path d="M10.7989 41.5922C8.38 41.5922 6.41167 39.6245 6.41167 37.2056C6.41167 34.7867 8.37944 32.8183 10.7989 32.8183H44.7111C45.0183 32.8183 45.2667 33.0667 45.2667 33.3739C45.2667 33.6811 45.0183 33.9295 44.7111 33.9295H10.7989C8.99278 33.9295 7.52278 35.3995 7.52278 37.2056C7.52278 39.0117 8.99278 40.4811 10.7989 40.4811C11.1056 40.4811 11.3544 40.7295 11.3544 41.0367C11.3544 41.3439 11.1056 41.5922 10.7989 41.5922Z" fill="black"/>
<path d="M40.7911 45.1161C38.5422 45.1161 36.7122 43.2861 36.7122 41.0367C36.7122 38.7872 38.5422 36.9572 40.7911 36.9572C43.0406 36.9572 44.8706 38.7872 44.8706 41.0367C44.8706 43.2861 43.0406 45.1161 40.7911 45.1161ZM40.7911 38.0683C39.155 38.0683 37.8233 39.3995 37.8233 41.0367C37.8233 42.6739 39.1544 44.005 40.7911 44.005C42.4278 44.005 43.7594 42.6739 43.7594 41.0367C43.7594 39.3995 42.4278 38.0683 40.7911 38.0683Z" fill="black"/>
<path d="M18.8661 45.1161C16.6172 45.1161 14.7872 43.2861 14.7872 41.0367C14.7872 38.7872 16.6172 36.9572 18.8661 36.9572C21.1156 36.9572 22.9456 38.7872 22.9456 41.0367C22.9456 43.2861 21.1156 45.1161 18.8661 45.1161ZM18.8661 38.0683C17.2295 38.0683 15.8983 39.3995 15.8983 41.0367C15.8983 42.6739 17.2295 44.005 18.8661 44.005C20.5028 44.005 21.8345 42.6739 21.8345 41.0367C21.8345 39.3995 20.5028 38.0683 18.8661 38.0683Z" fill="black"/>
<path d="M32.2694 41.5922H22.39C22.0833 41.5922 21.8344 41.3439 21.8344 41.0367C21.8344 40.7294 22.0833 40.4811 22.39 40.4811H32.2694C32.5767 40.4811 32.825 40.7294 32.825 41.0367C32.825 41.3439 32.5767 41.5922 32.2694 41.5922Z" fill="black"/>
<path d="M44.7105 13.2933H30.0161C29.7089 13.2933 29.4605 13.0444 29.4605 12.7378V5.06222C29.4605 4.75556 29.7089 4.50667 30.0161 4.50667H44.7105C45.0178 4.50667 45.2661 4.75556 45.2661 5.06222V12.7378C45.2661 13.045 45.0178 13.2933 44.7105 13.2933ZM30.5717 12.1822H44.155V5.61778H30.5717V12.1822Z" fill="black"/>
<path d="M15.4505 13.2933C15.1439 13.2933 14.895 13.0445 14.895 12.7378V1.43945C14.895 1.13278 15.1439 0.883896 15.4505 0.883896H34.7311C35.0383 0.883896 35.2867 1.13278 35.2867 1.43945V5.06223C35.2867 5.3689 35.0383 5.61778 34.7311 5.61778C34.4239 5.61778 34.1755 5.3689 34.1755 5.06223V1.99501H16.0061V12.7378C16.0061 13.045 15.7572 13.2933 15.4505 13.2933Z" fill="black"/>
<path d="M28.905 28.4828C28.5978 28.4828 28.3494 28.2344 28.3494 27.9272V18.0728C28.3494 17.7661 28.5978 17.5172 28.905 17.5172C29.2122 17.5172 29.4605 17.7661 29.4605 18.0728V27.9272C29.4605 28.2344 29.2122 28.4828 28.905 28.4828Z" fill="black"/>
<path d="M33.8317 23.5556H23.9778C23.6711 23.5556 23.4222 23.3067 23.4222 23C23.4222 22.6933 23.6711 22.4444 23.9778 22.4444H33.8317C34.1389 22.4444 34.3872 22.6933 34.3872 23C34.3872 23.3067 34.1389 23.5556 33.8317 23.5556Z" fill="black"/>
</svg>
