<svg width="19" height="17" viewBox="0 0 19 17" fill="none" xmlns="http://www.w3.org/2000/svg">
<path d="M19 0H2V17H19V0Z" fill="#F8DA7F"/>
<path d="M12.8248 15.3961L0.607163 3.17851C0.390317 2.96167 0.390317 2.60968 0.607163 2.39284C0.824009 2.17599 1.17599 2.17599 1.39284 2.39284L13.6109 14.6109C13.8277 14.8277 13.8277 15.1797 13.6109 15.3965C13.394 15.6134 13.0416 15.613 12.8248 15.3961Z" fill="black"/>
<path d="M13.3961 3.17521L1.17851 15.3928C0.961665 15.6097 0.610076 15.6101 0.392837 15.3928C0.175598 15.1756 0.175991 14.824 0.392837 14.6072L12.6109 2.38914C12.8277 2.1723 13.1793 2.1719 13.3965 2.38914C13.6138 2.60638 13.613 2.95836 13.3961 3.17521Z" fill="black"/>
</svg>
