<svg width="50" height="26" viewBox="0 0 50 26" fill="none" xmlns="http://www.w3.org/2000/svg">
<path d="M34.5028 3.455H12.9239V19.6056H34.5028V3.455Z" fill="#F8DA7F"/>
<path d="M36.725 22.3833H24.7861C24.4795 22.3833 24.2306 22.135 24.2306 21.8278C24.2306 21.5206 24.4795 21.2722 24.7861 21.2722H36.1695V1.78889H11.2572V3.74278C11.2572 4.04945 11.0083 4.29834 10.7017 4.29834C10.395 4.29834 10.1461 4.04945 10.1461 3.74278V1.23334C10.1461 0.926669 10.395 0.67778 10.7017 0.67778H36.725C37.0322 0.67778 37.2806 0.926669 37.2806 1.23334V21.8278C37.2806 22.1344 37.0322 22.3833 36.725 22.3833Z" fill="white"/>
<path d="M15.3795 22.3833H10.7017C10.395 22.3833 10.1461 22.135 10.1461 21.8278V19.0294C10.1461 18.7222 10.395 18.4739 10.7017 18.4739C11.0083 18.4739 11.2572 18.7222 11.2572 19.0294V21.2722H15.3795C15.6861 21.2722 15.935 21.5206 15.935 21.8278C15.935 22.135 15.6861 22.3833 15.3795 22.3833Z" fill="white"/>
<path d="M49.4444 22.3833C49.1389 22.3833 48.8911 22.1372 48.8889 21.8317L48.8361 13.9778L43.1405 7.99945H37.2805V21.2722H40.4389C40.7461 21.2722 40.9944 21.5206 40.9944 21.8278C40.9944 22.135 40.7461 22.3833 40.4389 22.3833H36.725C36.4178 22.3833 36.1694 22.135 36.1694 21.8278V7.44389C36.1694 7.13723 36.4178 6.88834 36.725 6.88834H43.3789C43.5305 6.88834 43.6761 6.95056 43.7811 7.06056L49.7922 13.3706C49.89 13.4733 49.9444 13.6089 49.9455 13.75L50 21.8239C50.0022 22.1311 49.755 22.3811 49.4483 22.3833C49.4472 22.3833 49.4455 22.3833 49.4444 22.3833Z" fill="white"/>
<path d="M44.94 14.3089H40.2372C39.93 14.3089 39.6817 14.0606 39.6817 13.7533V7.44389C39.6817 7.13723 39.93 6.88834 40.2372 6.88834C40.5444 6.88834 40.7928 7.13723 40.7928 7.44389V13.1983H44.94C45.2472 13.1983 45.4956 13.4472 45.4956 13.7539C45.4956 14.0606 45.2467 14.3089 44.94 14.3089Z" fill="white"/>
<path d="M18.3194 25.3228C16.3922 25.3228 14.8239 23.755 14.8239 21.8278C14.8239 19.9006 16.3917 18.3328 18.3194 18.3328C20.2467 18.3328 21.8144 19.9006 21.8144 21.8278C21.8144 23.755 20.2461 25.3228 18.3194 25.3228ZM18.3194 19.4439C17.005 19.4439 15.935 20.5133 15.935 21.8278C15.935 23.1422 17.0044 24.2117 18.3194 24.2117C19.6344 24.2117 20.7033 23.1422 20.7033 21.8278C20.7033 20.5133 19.6339 19.4439 18.3194 19.4439Z" fill="white"/>
<path d="M43.3789 25.3228C41.4511 25.3228 39.8833 23.755 39.8833 21.8278C39.8833 19.9006 41.4511 18.3328 43.3789 18.3328C45.3061 18.3328 46.8739 19.9006 46.8739 21.8278C46.8739 23.755 45.3061 25.3228 43.3789 25.3228ZM43.3789 19.4439C42.0644 19.4439 40.9944 20.5133 40.9944 21.8278C40.9944 23.1422 42.0644 24.2117 43.3789 24.2117C44.6933 24.2117 45.7628 23.1422 45.7628 21.8278C45.7628 20.5133 44.6933 19.4439 43.3789 19.4439Z" fill="white"/>
<path d="M23.7133 12.0856H0.555556C0.248889 12.0856 0 11.8367 0 11.53C0 11.2233 0.248889 10.9744 0.555556 10.9744H23.7133C24.02 10.9744 24.2689 11.2233 24.2689 11.53C24.2689 11.8367 24.02 12.0856 23.7133 12.0856Z" fill="white"/>
<path d="M23.7133 7.38223H6.43501C6.12834 7.38223 5.87946 7.13334 5.87946 6.82667C5.87946 6.52001 6.12834 6.27112 6.43501 6.27112H23.7139C24.0206 6.27112 24.2695 6.52001 24.2695 6.82667C24.2695 7.13334 24.02 7.38223 23.7133 7.38223Z" fill="white"/>
<path d="M23.7133 16.7889H6.43501C6.12834 16.7889 5.87946 16.5406 5.87946 16.2333C5.87946 15.9261 6.12834 15.6778 6.43501 15.6778H23.7139C24.0206 15.6778 24.2695 15.9261 24.2695 16.2333C24.2695 16.5406 24.02 16.7889 23.7133 16.7889Z" fill="white"/>
</svg>
