<svg width="27" height="17" viewBox="0 0 27 17" fill="none" xmlns="http://www.w3.org/2000/svg">
<path d="M27 0H9V17H27V0Z" fill="#F8DA7F"/>
<path d="M23.7133 9.08557H0.555556C0.248889 9.08557 0 8.83668 0 8.53001C0 8.22335 0.248889 7.97446 0.555556 7.97446H23.7133C24.02 7.97446 24.2689 8.22335 24.2689 8.53001C24.2689 8.83668 24.02 9.08557 23.7133 9.08557Z" fill="black"/>
<path d="M23.7133 4.38223H6.43501C6.12834 4.38223 5.87946 4.13334 5.87946 3.82667C5.87946 3.52001 6.12834 3.27112 6.43501 3.27112H23.7139C24.0206 3.27112 24.2695 3.52001 24.2695 3.82667C24.2695 4.13334 24.02 4.38223 23.7133 4.38223Z" fill="black"/>
<path d="M23.7133 13.7889H6.43501C6.12834 13.7889 5.87946 13.5406 5.87946 13.2334C5.87946 12.9261 6.12834 12.6778 6.43501 12.6778H23.7139C24.0206 12.6778 24.2695 12.9261 24.2695 13.2334C24.2695 13.5406 24.02 13.7889 23.7133 13.7889Z" fill="black"/>
</svg>
